<?xml version="1.0" standalone="no"?><!DOCTYPE svg PUBLIC "-//W3C//DTD SVG 1.1//EN" "http://www.w3.org/Graphics/SVG/1.1/DTD/svg11.dtd"><svg t="1725715668880" class="icon" viewBox="0 0 1024 1024" version="1.1" xmlns="http://www.w3.org/2000/svg" p-id="10256" xmlns:xlink="http://www.w3.org/1999/xlink" width="200" height="200"><path d="M537 139c165.23 0 302.183 121.067 326.991 279.332C922.626 466.753 960 540.012 960 622c0 145.803-118.197 264-264 264H348c-156.942-0.542-284-127.933-284-285 0-115.73 68.98-215.348 168.067-259.984C282.35 222.296 399.947 139 537 139z m0 64c-108.247 0-204.502 64.996-246.001 162.976l-6.113 14.433a24 24 0 0 1-12.242 12.522l-14.291 6.438C179.66 434.817 128 513.188 128 601c0 120.513 96.481 218.546 216.474 220.956l3.643 0.044H696c110.457 0 200-89.543 200-200 0-60.52-26.962-116.498-72.761-154.32l-11.698-9.66a24 24 0 0 1-8.428-14.79l-2.35-14.987C780.558 299.34 668.927 203 537 203z m139.647 292.862c10.463 14.023 7.712 33.815-6.088 44.465l-0.421 0.32-176.87 131.982c-28.202 21.045-68.103 15.375-89.326-12.694l-67.467-89.23c-10.659-14.098-7.872-34.166 6.226-44.825 13.956-10.552 33.764-7.926 44.502 5.806l0.322 0.42 57.878 76.548c5.306 7.017 15.281 8.435 22.331 3.173l164.128-122.474c14.164-10.569 34.215-7.655 44.785 6.51z" fill="#6495ED" p-id="10257"></path></svg>