<?xml version="1.0" standalone="no"?><!DOCTYPE svg PUBLIC "-//W3C//DTD SVG 1.1//EN" "http://www.w3.org/Graphics/SVG/1.1/DTD/svg11.dtd"><svg t="1725740141537" class="icon" viewBox="0 0 1077 1024" version="1.1" xmlns="http://www.w3.org/2000/svg" p-id="14001" xmlns:xlink="http://www.w3.org/1999/xlink" width="210.3515625" height="200"><path d="M1024 916.210526a53.894737 53.894737 0 0 1 6.305684 107.412211L1024 1024H53.894737a53.894737 53.894737 0 0 1-6.305684-107.412211L53.894737 916.210526h970.105263zM538.947368 0a53.894737 53.894737 0 0 1 53.894737 53.894737v588.422737l181.894737-145.461895a53.894737 53.894737 0 0 1 72.380632 79.602526l-5.012211 4.581053L538.947368 823.511579l-303.157894-242.526316a53.894737 53.894737 0 0 1 61.817263-88.064l5.551158 3.880421L485.052632 642.317474V53.894737a53.894737 53.894737 0 0 1 53.894736-53.894737z" fill="#008df0" p-id="14002"></path></svg>